<svg width="24" height="28" viewBox="0 0 24 28" fill="none" xmlns="http://www.w3.org/2000/svg">
<path d="M22.4683 3.68816C21.1572 1.88915 19.2242 0.641714 17.0448 0.188203C14.8654 -0.265307 12.5952 0.107487 10.6753 1.23416L3.95829 5.38816C3.05794 5.93074 2.28241 6.65745 1.68251 7.52067C1.08262 8.38389 0.671906 9.36414 0.477288 10.3972C0.157946 12.125 0.440292 13.9102 1.27729 15.4552C0.70369 16.2986 0.311729 17.2521 0.126288 18.2552C-0.0646003 19.3023 -0.0388546 20.3774 0.201935 21.4142C0.442725 22.4509 0.89345 23.4274 1.52629 24.2832C2.83742 26.0824 4.77031 27.3302 6.94973 27.7844C9.12915 28.2386 11.3996 27.8668 13.3203 26.7412L20.0383 22.5882C20.9384 22.0452 21.7137 21.3184 22.3135 20.4553C22.9134 19.5921 23.3243 18.612 23.5193 17.5792C23.8406 15.85 23.5582 14.0629 22.7193 12.5172C23.2935 11.6739 23.6858 10.7203 23.8713 9.71716C24.0621 8.6697 24.0361 7.59422 23.7948 6.55722C23.5535 5.52022 23.102 4.54374 22.4683 3.68816Z" fill="#FF3E00"/>
<path d="M10.0202 24.6281C8.96996 24.8975 7.86299 24.8452 6.84277 24.4781C5.82254 24.111 4.93608 23.4459 4.29823 22.5691C3.9163 22.0551 3.64396 21.4681 3.4981 20.8446C3.35223 20.2211 3.33594 19.5742 3.45023 18.9441C3.48826 18.7372 3.5414 18.5333 3.60923 18.3341L3.73623 17.9591L4.08023 18.1971C4.87877 18.7658 5.76712 19.1965 6.70823 19.4711L6.95323 19.5441L6.92823 19.7811C6.89945 20.1258 6.99564 20.4694 7.19923 20.7491C7.39062 21.0198 7.65999 21.2257 7.97141 21.3393C8.28283 21.4529 8.6215 21.4689 8.94223 21.3851C9.08714 21.3474 9.22565 21.2885 9.35323 21.2101L16.0532 17.0561C16.2164 16.9572 16.357 16.8252 16.466 16.6686C16.575 16.5121 16.6501 16.3344 16.6862 16.1471C16.7223 15.9582 16.7192 15.764 16.6772 15.5763C16.6353 15.3887 16.5553 15.2116 16.4422 15.0561C16.2498 14.7916 15.9825 14.5909 15.6748 14.48C15.3671 14.3691 15.0331 14.3531 14.7162 14.4341C14.5706 14.4718 14.4314 14.5312 14.3032 14.6101L11.7312 16.1941C11.3085 16.4557 10.8486 16.6519 10.3672 16.7761C9.31613 17.0462 8.20813 16.9942 7.18694 16.6268C6.16575 16.2595 5.27849 15.5938 4.64023 14.7161C4.26084 14.2004 3.99132 13.6124 3.84838 12.9883C3.70545 12.3643 3.69212 11.7175 3.80923 11.0881C3.92727 10.4681 4.17421 9.87977 4.53407 9.36125C4.89393 8.84274 5.35868 8.40558 5.89823 8.07811L12.6062 3.92411C13.029 3.66282 13.4889 3.46694 13.9702 3.34311C15.0214 3.07245 16.1296 3.12405 17.1511 3.49122C18.1725 3.85839 19.06 4.52417 19.6982 5.40211C20.0801 5.91614 20.3524 6.5031 20.4983 7.12664C20.6441 7.75017 20.6605 8.39701 20.5462 9.0271C20.5083 9.23408 20.4552 9.43797 20.3872 9.63711L20.2602 10.0121L19.9162 9.7751C19.1182 9.2056 18.2297 8.77489 17.2882 8.5011L17.0432 8.42711L17.0682 8.1901C17.097 7.84522 17.0004 7.50153 16.7962 7.22211C16.6044 6.95725 16.3372 6.75627 16.0296 6.64534C15.7219 6.5344 15.388 6.51864 15.0712 6.60011C14.9261 6.63768 14.7876 6.69702 14.6602 6.77611L7.93823 10.9161C7.77505 11.0145 7.63448 11.1462 7.52574 11.3027C7.417 11.4592 7.34254 11.6369 7.30723 11.8241C7.27027 12.0131 7.27287 12.2077 7.31486 12.3957C7.35686 12.5836 7.43734 12.7608 7.55123 12.9161C7.74376 13.1804 8.01117 13.3809 8.31887 13.4916C8.62658 13.6024 8.96043 13.6182 9.27723 13.5371C9.42271 13.4993 9.56186 13.4403 9.69023 13.3621L12.2522 11.7771C12.6748 11.5154 13.1347 11.3195 13.6162 11.1961C14.6674 10.926 15.7754 10.9779 16.7968 11.345C17.8181 11.7121 18.7056 12.3776 19.3442 13.2551C19.7251 13.7696 19.9965 14.3567 20.1415 14.9802C20.2865 15.6037 20.3021 16.2503 20.1872 16.8801C20.07 17.5008 19.8234 18.0899 19.4635 18.609C19.1036 19.1281 18.6384 19.5656 18.0982 19.8931L11.3912 24.0471C10.9687 24.3088 10.5087 24.5047 10.0272 24.6281" fill="white"/>
</svg>
